<?xml version="1.0" encoding="UTF-8"?>
<svg id="Layer_1" xmlns="http://www.w3.org/2000/svg" version="1.1" viewBox="0 0 557.3 800.01">
  <!-- Generator: Adobe Illustrator 29.1.0, SVG Export Plug-In . SVG Version: 2.1.0 Build 142)  -->
  <path d="M214.42,350.29c-24.6,5.9-48.69,14.33-73.17,20.74,5.17,1.94,10.25,4.21,15.25,6.79,11.27-3.68,22.62-7.64,33.21-9.83,2.61-.54,4.41-1.54,6.42.87,2.21,2.64,5.54,20.74,7.11,25.65,3.66,11.48,8.14,4.5,15.92,5.28,5.17.52,2.74,5.74,2.69,8.82-.15,8.35-.29,11.79,7.5,16.21,13.36,7.57,31.51,11.22,45.3,17.8,2.13,1.02,4.79,1.1,7.16,1.1s4.66-1.39,7.19-3.13l53.92-26.79c1.79-2.88-5.73-14.45-4.63-18.42.58-.82,15.87-4.27,18.45-5.38,8.48-3.65,6.53-17.43,7.85-24.91,1.45-8.19,10.14-3.1,14.83-1.16,9.78,4.04,19.52,8.36,29.24,12.84,3.3-1.69,6.71-3.2,10.21-4.54-12.2-5.34-24.39-10.56-36.41-15.58-3.82-1.59-10.24-4.9-14.06-5.35h-.03c-8.52-1-18.88.76-27.61.01l9.7-57.35c-.13-3.3,1.06-6.15-2.2-8.11-1.16-.69-2.87-.25-2.68-1.56l4.97-53.04c7.68-1.89,15.6-3.9,18.42-12.2,1.5,1.32,4.14,1.55,6.06,1.18,2.72-.53,2.94-3.83,3.42-4.17.61-.43,2.26.42,3.18.33,4.15-.4,5.63-3.17,5.86-7.07,3.95,1.89,9.86-.66,10.3-5.22.16-1.66-1.57-4.95-2.32-6.72-6.71-15.71-14.84-31.08-21.94-46.63l.29-.89c4.36,1.42,12.1,5.95,16.42,6.1,4.73.16,5.76-6.61,3.65-9.78l-20.99-10.02c3.91-11.86,10.57-23.54,14.43-35.31,1.12-3.4,2.91-5.75-.64-8.15-7.74-5.23-22.21-11.16-31.15-15.57-36.83-18.18-73.98-35.77-111.1-53.34-2.53-.49-5.3-.33-6.74,2.07l-17.09,39.05-24.7-9.57c-5.37-1.44-6.98,2.64-6.11,7.32,5.98,6.03,16.4,7.92,23.36,12.42.59.38,1.09-.07.78,1.35-14.6,4.44-22.93,16.47-31.8,27.97-13.98,18.13-31.07,41.05-42.48,60.68-7.5,12.91-12.71,30.66,3.29,39.4-4.93,6.76-4.81,16.5.1,23.25,1.47,2.03,3.75,3.29,4.77,5.59.38,3.3-6.24,1.76-7.19,4.95-.52,1.72-.29,11.55.28,13.44,1.58,5.25,6.8,5.71,11.44,6.16,4.36.42,9.79-1.7,10.57,3.99.78,5.69,1.4,19.12-.63,24.17l-29.38,50.1c-2.58,10,9.69,18.91,17.94,21.53,4.28,1.36,12.87,3.03,16.95,1.22,1.16-.51,2.8-3.19,3.54-4.35,7.53-11.74,13.59-25.32,21.08-37.18.89-1.55,2.69-1.31,4.24-1.27,2.99.09,10.33.72,13.21,1.38,2.88.66,3.15,4.16,3.78,6.54,1.27,4.8,2.46,11.31,3.15,16.26.49,3.56,2.41,8.77-2.37,10.02ZM285.22,427.11c-3.34,3.83-4.31,2.72-7.18-.61-7.5-8.7-20.66-26.13-26.7-35.8-.84-1.35-1.71-2.91-2.13-4.44.12-.49,4.38-3.38,5.23-3.89,14.69-8.86,26.75,1.71,40.51,5.97,11.37,3.51,8.35-4.15,8.83-11.85.1-1.62.77-11.45,1.26-11.78v.02c2.04-1.34,2.98,1.68,3.6,2.09.79.52,11.75-3.16,13.94-3.68,2.63-.63,5.38-1.18,8.04-1.67.8-.15,1.19-1.14,1.06.45-7.38,9.29-14.26,18.97-21.12,28.64-7.78,10.96-16.93,26.9-25.34,36.55ZM342.91,361.62c2.81,0,10.73-.56,12.74,0h.02c.6.16,1.36,1.42,1.5,2.13.62,3.26-.77,17.01-3,19.42-2.23,2.41-18.64,6.01-22.65,7.69-1.46.76-2.6,2.48-2,4.12l5.56,13.32-.29.95-44.66,23.36c.73-2.44,2.62-4.75,4.05-6.87,12.4-18.41,25.75-38.57,39.09-56.17,2.46-3.24,4.94-7.95,9.64-7.95ZM336.95,333.22c-.83,4.3-1.8,11.35-3.72,15.09-3.89,7.6-20.92,9.59-28.25,12.71-.41-3.41.56-8,0-11.23v.02c-.07-.46-1.23-1.78-1.3-2.63-.63-.4-2.84-.14-3.71.04-9.8,2.02-23.69,11.15-34.09,13.84-12.1,3.13-20.07-8.67-29.62-11.69-1.92-.61-4.22-.97-5.88.45-3.45,2.94,1.45,8.32,1.69,11.02.16,1.75-2.44,2.62-3.58.98s-3.33-13.07-3.92-15.94c-1.95-9.52-3.21-19.21-4.55-28.84-.12-1.26.07-.8.91-.92,1.93-.28,14.85-1.66,15.43-1.15,3.75,10.26,4.79,30.65,15.51,36.36,8.92,4.75,11.14-.62,11.84-8.83,1.41-16.72.41-36.98.03-54.02-.09-3.89-1.69-8.39.05-12.34.82-.27,1.68-.11,2.5.07,4.68,1.04,12.58,5.32,17.74,7.15,18.29,6.46,37.78,10.84,57.3,8.53.69,1.99,1.3,3.41,1.22,5.62-.33,9.55-3.72,25.86-5.6,35.71ZM345.06,203.58c-.94,17.43-4.75,35.68-5.51,53.35-.33,7.68.89,16.96.04,24.31-.59,5.09-4.71,4.12-8.84,3.96-7.96-.31-20.66-2.25-28.32-4.45-2.4-.69-8.46-2.44-8.96-5,.25-10.68,3.17-21.19,4.24-31.84h0c3.26,1.33,4.75,4.59,8.08,6.17,20.59,9.77,30.19-18.16,34.09-32.87,2.56-9.64,2.37-15.47,2.73-25.19.03-.73-.45-2.26.6-2.11,1.96,4.36,2.1,8.93,1.85,13.67ZM244.1,37.09l4.29.38c30.28,15.07,60.58,30.12,90.97,44.95,10.24,5,24.49,10.28,33.8,15.95,5.05,3.07.52,10.6-2.41,13.75l-131.3-62.09-.52-1.08,5.17-11.86ZM229.75,70.36l1.21-2.77h1.83l129.85,60.13-.33,2.71-132.57-60.07h.01ZM194.51,306.38c1.03-2.63,6.56-13.23,5.19-15.2-2.08-3-5.03,3.02-5.9,4.48-4.83,8.05-9.07,16.89-13.75,25.09-3.61,6.32-11.7,22.69-15.97,27.11-1.27,1.31-3.68,2.46-5.4,1.33-1.42-.94.35-3.44.93-4.59,8.25-16.37,21.96-35.17,28.53-51.57,2.75-6.86-.62-7.86-4.43-2-10.21,15.71-17.87,36.95-28.86,51.84-1.21,1.64-3.87,5.46-6.19,3.62-1.8-1.44.01-3.74.85-5.32,4.69-8.77,10.44-17.21,15.38-25.88,3.93-6.89,12.99-20.59,15.2-27.27.96-2.9.89-6.04-2.61-3.22-.92.74-2.47,3.45-3.24,4.64-7.41,11.44-13.73,24.44-20.88,36.16-1.59,2.6-7.36,12.8-9.37,13.7-2.32,1.04-3.03.13-2.92-2.26,6.27-13.32,15.18-25.61,21.99-38.74,2.49-4.8,6.02-11.1,6.56-16.49.87-8.66-1.78-17.46-.04-25.99,2.97-2.83,16.64.12,17.07-4.38.2-2.05-1.67-2.52-3.35-2.71l-33.86,1.09c-3.48-.77-3.17-6.14-2.58-8.99l29.42-4.26v-1.74c-.43-.7-11.72-.78-13.95-3.51-3.66-4.48,3.74-9.41,4.31-14.1.9-.14,1.44-.12,2.1.58,2.4,2.52,2.18,10.13,7.02,14.22,9.89,8.34,30.74,9.67,39.38-1.18,11.18-14.04,7.23-50.56,4.78-67.86-.65-4.62-2.7-21.55-7.53-22.82-1.23-.39-1.13,1.39-1.14,2.1-.07,3.62,1.34,8.86,1.5,12.72.5,11.97.87,49.48-16.16,51.29-5.82.61-.01-4.29.24-5.88.57-3.65-7.02-23.62-9.86-26.31-1.59-1.52-3.13-1.54-5.22-.9-1.36.42-14.23,8.67-15.12,9.74-.89,1.07-1.04,2.83.38,3.28,2.9.91,12.57-7.91,18.42-5.11,1.68.8,5.15,11.88,5.32,14.14.19,2.49-.26,3.03-2.45,3.87-6.45,2.47-30.97,1.73-38.21.34-9.71-1.86-10.59-11.69-7.06-19.49,6.34-14.01,21.63-34.92,30.74-48.14,10.65-15.44,25.76-38.56,42.05-47.75,3.65-2.06,5.93-3.49,10.43-2.63,45.88,20.52,90.91,42.83,137.19,62.44,2.48,1.92,4.29,9.22,5.75,12.46,2.56,5.66,21.26,42.87,20.65,45.28-.14.57-.68,1.02-1.13,1.38-1.78.89-3.74-2.1-4.56-3.36-9.92-15.31-15.87-37.1-25.04-53.23-1.42-2.18-2.7-3.72-5.58-3.22l-.06-.02.28,3.66,26.76,58.22c.15,3.32-2.44,4.29-4.5,1.43-3.42-4.73-7.61-15.46-10.33-21.23-6.87-14.56-12.76-29.81-20.49-43.84-1.49-1.01-2.38-.62-3.17.97l29.85,66.46.14,1.72-2.39,1.67c-1.36-.29-5.64-9.69-6.57-11.62-8.89-18.52-16.2-38.94-25.46-57.06-2.48-4.86-5.25-5.95-4.18.55l30.06,68.23.25,2.99c-1.49.71-2.52.37-3.61-.85l-30.6-68.91c-.36-1.61-3.38-4.07-4.51-2.31-1.33,2.07,4.72,12.37,5.39,15.08-5.4-.44-11.72-1.91-16.4,1.51-9.32,6.8-14.48,28.23-3.93,35.51,4.43,3.06,11.15-.05,10.67-5.16-.31-3.36-5.89-6.69-6.15-12.73-.39-9,11.95-14.19,15.65-3.49,3.29,9.48,2.49,30.09.48,39.58-2.01,9.49-10.27,30.8-23.37,25.17-8.8-3.78-4.86-24.08,1.83-20.03,3.8,2.29-3.38,9.7,1.54,10.62,3.71.7,7.02-2.67,7.88-6.04,3.96-15.56-16.56-21.68-24.47-7.48-3.91,7.02-6.66,33.87-7.39,42.97-.31,3.9,1.57,14.6-3.02,15.82-2.77.73-17.94-9.09-22.92-9.92-7.38-1.22-6.41,4.47-6.25,9.9.62,21.03,3.26,41.03,1.16,62.39-.75,7.73-4.38,7.19-6.62.72-1.34-3.87-4.76-19.42-4.79-23.18-.03-3.47,5.22-2.73,6.34-5.06.82-1.7.99-8.39-2.11-7.64-3.34.81-6.72,2.34-10.32,3.09-14.37,3.01-29.12,2.65-43.69,1.51ZM222.47,363.73l52.78,71.91h-.01s-46.1-19.74-46.1-19.74c-1.87-1.9-.48-6.34-.6-9.11-.15-3.44-1.06-7.16-.73-10.79-2.9-4.2-13.54.06-16.13-2.38-.8-.76-2.39-6.73-2.88-8.34-1.26-4.11-4.88-15.43-4.51-19.06.06-.59.3-1.62.71-2.03.43-.44,10.67-3.79,11.71-3.82,2.79-.08,3.99,1.57,5.76,3.36Z"/>
  <path d="M222.63,123.93c2.83-2.8,8.52-.18,9.39,3.31.46,1.86.93,9.91.49,11.73-1.01,4.18-7.48,5.79-10.06,2.09-2.2-3.14-2.47-14.5.18-17.14h0Z"/>
  <path d="M246.58,111.48c-2.88,2.88-5.99-2.47-8.06-4.09-1.17-.91-2.7-1.93-3.98-2.7-2.1-1.25-9.45-3.97-10.27-4.89-1.6-1.79-.31-4.23,1.79-4.89,3.45-1.08,6.21.88,9.08,2.5s15.46,10.04,11.43,14.06h0Z"/>
</svg>