<?xml version="1.0" encoding="UTF-8"?>
<svg id="Layer_1" xmlns="http://www.w3.org/2000/svg" version="1.1" viewBox="0 0 557.3 800.01">
  <!-- Generator: Adobe Illustrator 29.1.0, SVG Export Plug-In . SVG Version: 2.1.0 Build 142)  -->
  <path d="M368.39,351.31c3.82.45,10.24,3.76,14.06,5.35,33.54,13.99,68.35,29.57,101.33,44.9,3.3,1.53,11.61,4.52,12.67,7.96s.36,17.52.3,22.21c-.02,1.43-.64,2.76-.66,4.2-.2,17.45.16,35.02-1.02,52.37-1.04,2.18-4.74,2.01-6.84,1.96.93,1.65,2.79,3.92,3.02,5.81.28,2.29-.9,3.54-1.15,5.45-1,7.64,3.15,6.45,7.84,10.26,10.9,8.85,4.69,21.39,7.41,33.25,17.91,10.87,19.77,28.82,19.31,48.09-1.19,49.15-6.13,100.58-9.73,149.86-.37,5.02-.1,10.78-.62,15.76-.68,6.47-3.52,9.91-10.58,8.77-5.61-.91-4.72-7.61-4.58-11.79.72-21.46,3.55-43.95,4.84-65.54,1.83-30.4,4.18-61.93,4.89-92.2.21-9.16,1.01-20.36-3.98-28.25-4.26,3.1-7.57,5.39-13.21,4.13-2.12-.47-3.77-3.43-6.06-2.82-1.56.42-2.45,3.67-5.05,4.71-1.78.71-7.57,1.58-9.2.87-.94-.4-1.44-2.52-2.88-2.44-.7.04-3.6,2.8-6.71,2.86s-3.92-2.23-6.09-2.45c-1.87-.19-2.72.95-4.22,1.18-8.42,1.31-12.4-5.02-16.5-10.73-.3-.42.12-1.03-1.05-.75-7.42,5.89-4.95,14.44.3,20.9,2.15,2.65,10.1,8.56,9.44,11.85-.16.78-5.26,7.58-6.02,8.28-7.82,7.11-18.59-7.67-21.74-13.95-7.63-15.21-2.91-33.89,7.98-46.22-4.51-2.27-9.31-4.15-10.17-9.86-1.04-6.96,4.63-5.03,8.96-6.53,8.24-2.84,6.78-15.78,13.12-19.03,2.95-1.51,7.42-.89,10.58-1.55,10.2-2.13,8.91-11.53,9.07-19.76-4.84-.24-19.78,2.51-22.81-1.16l-3.24-41.06c-.65-.84-1.59-1.24-2.45-1.79-7.19-4.65-25.62-13.44-33.78-16.58-2.96-1.14-6.89-3.12-6.29,2.01,6.36,45.22,15.01,90.19,21.14,135.44.96,7.1,2.57,14.33,1.66,21.48l-11.27,1.17c2.92,43.57-2.05,86.97-11.71,129.36-1.24,5.45-1.87,11.39-5.28,15.95,5.62,2.47,8.8,8.05,13.52,11.38,12.92,9.12,35.52,4.45,50.53,5.9,3.9.38,6.74,2.58,7.41,6.55.29,1.75.45,11.89-.15,12.91-.56.94-2.55,1.25-3.62,1.24-19.33-.87-38.9.9-58.18.35-7.77-.22-6.51-2.63-11.51-5.35-5.94-3.23-15.37,2.42-21.88,2.64-1.67,1.04-.36,3.61-3.14,4.14s-14.98.38-18.19.02c-4.43-.5-5.89-2.72-5.81-6.99.12-6.64,1.97-13.81,1.9-20.54-3.02-1-5.05-3.51-5.51-6.73.17-23.68-.17-47.36-.02-71.04.09-14.13,1.72-28.9.66-43.08-.23-3.16-.73-7.7-4.55-8.2-13.84,1.07-29.53-1.32-43.14,0-5.29.51-6.61,3.26-6.97,8.2-.78,10.42.07,25.17.61,35.85.6,11.92,1.87,23.83,3.86,35.58,1.44,8.52,6.99,27.2,5.73,34.64-.66,3.89-3.01,5.34-5.33,8.04l2.5,29.12c-.05,3.11-.17,4.22-3.38,4.55-3.68.39-17.39.62-20.63-.01-2.75-.54-2.02-5.06-5.75-6.38-3.1-1.1-10.9-1.19-14.31-.91-7.47.63-6.53,4.64-11.85,7.57-8.14,4.47-26.02,1.65-35.43,1.53-10.18-.12-25.79,1.37-35.17-.63-6.4-1.36-3.28-11.79-1.57-16.04,1.61-4.01,2.46-4.69,7-5.14,14.94-1.49,32.71,5.19,47.18-.15,2.84-1.05,18.7-9.94,18.64-12.29-4.73-2.41-5.21-4.99-6.83-9.55-5.7-16.05-10.96-36.9-13.62-53.73-4.1-25.93-2.7-52.87-5.32-79.02-.44-.92-.8-1.97-1.57-2.68-5.21-4.81-25.43,3.29-27.24-7.35,2.55-40.88,7.18-81.67,9.67-122.55.24-3.96,1.45-17.13.51-19.92-.56-1.67-3.59-1.71-5.07-1.66-32.29,1.12-64.16,6.68-97.1,4.31-8.41-.6-7.81-1.75-9.69-9.12-7.38-28.93-11.72-58.72-19.13-87.67-1.4-8.86,12.49-6.47,17.96-9.38.86-1.2-1.28-13-1.84-15.23-2.7-10.82-7.01-6.53-14.84-11.25-12.78-7.71-9.93-17.92-13.23-30.46-.85-3.23-2.16-6.86-3.35-10-2.19-5.77-9.72-17.71-4.08-23.17,1.42-1.37,5.96-2.86,6.49-3.52,1.83-2.26,2.31-12.96,3.36-16.36,3.01-9.68,15.99-1.8,22.88-2.31-4.95-11.09-12.85-27.44-5.36-39.03,3.33-5.17,11.05-2.8,14.12,1.46,3.64,5.03,7,17.25,9.77,23.61,3.27,7.52,7.77,15.35,10.71,22.66,4,9.93-.1,18.3-1.74,28.21-2.55,15.38-3.42,27.14-.52,42.61.58,3.12,5.84,25.64,6.97,26.4,2.7,1.8,12.35-3.95,14.87-.3l9.72,39.43c1.68,1.7,7.37-.28,9.56-.8,28.06-6.57,55.44-16.58,83.49-23.31,4.78-1.25,2.86-6.46,2.37-10.02-.69-4.95-1.88-11.46-3.15-16.26-.63-2.38-.9-5.88-3.78-6.54s-10.22-1.29-13.21-1.38c-1.55-.04-3.35-.28-4.24,1.27-7.49,11.86-13.55,25.44-21.08,37.18-.74,1.16-2.38,3.84-3.54,4.35-4.08,1.81-12.67.14-16.95-1.22-8.25-2.62-20.52-11.53-17.94-21.53l29.38-50.1c2.03-5.05,1.41-18.48.63-24.17s-6.21-3.57-10.57-3.99c-4.64-.45-9.86-.91-11.44-6.16-.57-1.89-.8-11.72-.28-13.44.95-3.19,7.57-1.65,7.19-4.95-1.02-2.3-3.3-3.56-4.77-5.59-4.91-6.75-5.03-16.49-.1-23.25-16-8.74-10.79-26.49-3.29-39.4,11.41-19.63,28.5-42.55,42.48-60.68,8.87-11.5,17.2-23.53,31.8-27.97.31-1.42-.19-.97-.78-1.35-6.96-4.5-17.38-6.39-23.36-12.42-.87-4.68.74-8.76,6.11-7.32l24.7,9.57,17.09-39.05c1.44-2.4,4.21-2.56,6.74-2.07,37.12,17.57,74.27,35.16,111.1,53.34,8.94,4.41,23.41,10.34,31.15,15.57,3.55,2.4,1.76,4.75.64,8.15-3.86,11.77-10.52,23.45-14.43,35.31l20.99,10.02c2.11,3.17,1.08,9.94-3.65,9.78-4.32-.15-12.06-4.68-16.42-6.1l-.29.89c7.1,15.55,15.23,30.92,21.94,46.63.75,1.77,2.48,5.06,2.32,6.72-.44,4.56-6.35,7.11-10.3,5.22-.23,3.9-1.71,6.67-5.86,7.07-.92.09-2.57-.76-3.18-.33-.48.34-.7,3.64-3.42,4.17-1.92.37-4.56.14-6.06-1.18-2.82,8.3-10.74,10.31-18.42,12.2l-4.97,53.04c-.19,1.31,1.52.87,2.68,1.56,3.26,1.96,2.07,4.81,2.2,8.11l-9.7,57.35c8.73.75,19.09-1.01,27.61,0ZM244.1,37.09l-5.17,11.86.52,1.08,131.3,62.09c2.93-3.15,7.46-10.68,2.41-13.75-9.31-5.67-23.56-10.95-33.8-15.95-30.39-14.83-60.69-29.88-90.97-44.95l-4.29-.38ZM229.74,70.36l132.57,60.07.33-2.71-129.85-60.13h-1.83s-1.21,2.77-1.21,2.77ZM353.53,143.18c2.88-.5,4.16,1.04,5.58,3.22,9.17,16.13,15.12,37.92,25.04,53.23.82,1.26,2.78,4.25,4.56,3.36.45-.36.99-.81,1.13-1.38.61-2.41-18.09-39.62-20.65-45.28-1.46-3.24-3.27-10.54-5.75-12.46-46.28-19.61-91.31-41.92-137.19-62.44-4.5-.86-6.78.57-10.43,2.63-16.29,9.19-31.4,32.31-42.05,47.75-9.11,13.22-24.4,34.13-30.74,48.14-3.53,7.8-2.65,17.63,7.06,19.49,7.24,1.39,31.76,2.13,38.21-.34,2.19-.84,2.64-1.38,2.45-3.87-.17-2.26-3.64-13.34-5.32-14.14-5.85-2.8-15.52,6.02-18.42,5.11-1.42-.45-1.27-2.21-.38-3.28s13.76-9.32,15.12-9.74c2.09-.64,3.63-.62,5.22.9,2.84,2.69,10.43,22.66,9.86,26.31-.25,1.59-6.06,6.49-.24,5.88,17.03-1.81,16.66-39.32,16.16-51.29-.16-3.86-1.57-9.1-1.5-12.72.01-.71-.09-2.49,1.14-2.1,4.83,1.27,6.88,18.2,7.53,22.82,2.45,17.3,6.4,53.82-4.78,67.86-8.64,10.85-29.49,9.52-39.38,1.18-4.84-4.09-4.62-11.7-7.02-14.22-.66-.7-1.2-.72-2.1-.58-.57,4.69-7.97,9.62-4.31,14.1,2.23,2.73,13.52,2.81,13.95,3.51v1.74s-29.42,4.26-29.42,4.26c-.59,2.85-.9,8.22,2.58,8.99l33.86-1.09c1.68.19,3.55.66,3.35,2.71-.43,4.5-14.1,1.55-17.07,4.38-1.74,8.53.91,17.33.04,25.99-.54,5.39-4.07,11.69-6.56,16.49-6.81,13.13-15.72,25.42-21.99,38.74-.11,2.39.6,3.3,2.92,2.26,2.01-.9,7.78-11.1,9.37-13.7,7.15-11.72,13.47-24.72,20.88-36.16.77-1.19,2.32-3.9,3.24-4.64,3.5-2.82,3.57.32,2.61,3.22-2.21,6.68-11.27,20.38-15.2,27.27-4.94,8.67-10.69,17.11-15.38,25.88-.84,1.58-2.65,3.88-.85,5.32,2.32,1.84,4.98-1.98,6.19-3.62,10.99-14.89,18.65-36.13,28.86-51.84,3.81-5.86,7.18-4.86,4.43,2-6.57,16.4-20.28,35.2-28.53,51.57-.58,1.15-2.35,3.65-.93,4.59,1.72,1.13,4.13-.02,5.4-1.33,4.27-4.42,12.36-20.79,15.97-27.11,4.68-8.2,8.92-17.04,13.75-25.09.87-1.46,3.82-7.48,5.9-4.48,1.37,1.97-4.16,12.57-5.19,15.2,14.57,1.14,29.32,1.5,43.69-1.51,3.6-.75,6.98-2.28,10.32-3.09,3.1-.75,2.93,5.94,2.11,7.64-1.12,2.33-6.37,1.59-6.34,5.06.03,3.76,3.45,19.31,4.79,23.18,2.24,6.47,5.87,7.01,6.62-.72,2.1-21.36-.54-41.36-1.16-62.39-.16-5.43-1.13-11.12,6.25-9.9,4.98.83,20.15,10.65,22.92,9.92,4.59-1.22,2.71-11.92,3.02-15.82.73-9.1,3.48-35.95,7.39-42.97,7.91-14.2,28.43-8.08,24.47,7.48-.86,3.37-4.17,6.74-7.88,6.04-4.92-.92,2.26-8.33-1.54-10.62-6.69-4.05-10.63,16.25-1.83,20.03,13.1,5.63,21.36-15.68,23.37-25.17s2.81-30.1-.48-39.58c-3.7-10.7-16.04-5.51-15.65,3.49.26,6.04,5.84,9.37,6.15,12.73.48,5.11-6.24,8.22-10.67,5.16-10.55-7.28-5.39-28.71,3.93-35.51,4.68-3.42,11-1.95,16.4-1.51-.67-2.71-6.72-13.01-5.39-15.08,1.13-1.76,4.15.7,4.51,2.31l30.6,68.91c1.09,1.22,2.12,1.56,3.61.85l-.25-2.99-30.06-68.23c-1.07-6.5,1.7-5.41,4.18-.55,9.26,18.12,16.57,38.54,25.46,57.06.93,1.93,5.21,11.33,6.57,11.62l2.39-1.67-.14-1.72-29.85-66.46c.79-1.59,1.68-1.98,3.17-.97,7.73,14.03,13.62,29.28,20.49,43.84,2.72,5.77,6.91,16.5,10.33,21.23,2.06,2.86,4.65,1.89,4.5-1.43l-26.76-58.22-.28-3.66ZM297.71,243.91c-1.07,10.65-3.99,21.16-4.24,31.84.5,2.56,6.56,4.31,8.96,5,7.66,2.2,20.36,4.14,28.32,4.45,4.13.16,8.25,1.13,8.84-3.96.85-7.35-.37-16.63-.04-24.31.76-17.67,4.57-35.92,5.51-53.35.25-4.74.11-9.31-1.85-13.67-1.05-.15-.57,1.38-.6,2.11-.36,9.72-.17,15.55-2.73,25.19-3.9,14.71-13.5,42.64-34.09,32.87-3.33-1.58-4.82-4.84-8.08-6.17ZM91.4,337.35c-1.42-6.11-2.77-12.28-4.42-18.33-1.48-5.39-4.78-12.56-5.28-17.77-1.57-16.24,3.89-33.39,4.84-49.15.58-9.58-5.85-18.95-9.37-27.62-2.74-6.75-6.36-19.48-9.58-25.01-2.36-4.04-5.95-2.7-6.47,1.72-1.25,10.64,11.8,30.06,12.12,43,.14,5.5-2.17,9.36-3.27,14.39-1.22,5.59-2.28,17-4.53,21.56-1.6,3.24-4.87,2.33-7.13.2-6.15-5.81-10.67-18.16-15.79-24.86-4.9-6.41-9.98.89-8.62,7.41.67,3.24,6.51,12.95,8.22,17.27,2.92,7.39,4.96,19.65,8.37,25.61s9.86,3.99,15.03,7.42c7.11,4.72,7.28,19.54,9.56,27.16l16.33-2.99ZM65.76,238.6c-.46-.43-10.73-4.08-11.83-4.25-9.04-1.42-7.26,7.05-11.84,12.17.57,7.98,4.96,2.07,8.42.5,1.45-.66,3.15-1.41,4.77-1.33,4.23.19,7.89,5.94,12.38,3.61.36-2.56.03-8.89-1.9-10.7ZM61.63,264.52c3.22-9.09-11.7-19.7-8.17-3l8.17,3ZM304.98,349.79c.56,3.23-.41,7.82,0,11.23,7.33-3.12,24.36-5.11,28.25-12.71,1.92-3.74,2.89-10.79,3.72-15.09,1.88-9.85,5.27-26.16,5.6-35.71.08-2.21-.53-3.63-1.22-5.62-19.52,2.31-39.01-2.07-57.3-8.53-5.16-1.83-13.06-6.11-17.74-7.15-.82-.18-1.68-.34-2.5-.07-1.74,3.95-.14,8.45-.05,12.34.38,17.04,1.38,37.3-.03,54.02-.7,8.21-2.92,13.58-11.84,8.83-10.72-5.71-11.76-26.1-15.51-36.36-.58-.51-13.5.87-15.43,1.15-.84.12-1.03-.34-.91.92,1.34,9.63,2.6,19.32,4.55,28.84.59,2.87,2.78,14.3,3.92,15.94s3.74.77,3.58-.98c-.24-2.7-5.14-8.08-1.69-11.02,1.66-1.42,3.96-1.06,5.88-.45,9.55,3.02,17.52,14.82,29.62,11.69,10.4-2.69,24.29-11.82,34.09-13.84.87-.18,3.08-.44,3.71-.04.07.85,1.23,2.17,1.31,2.63ZM272.61,564.07c19.93-21.07,9.7-61.84,8.11-88.08-.49-8.09.29-17.49-.61-25.48-.46-4.07-1.92-6.18-5.47-7.88-13.79-6.58-31.94-10.23-45.3-17.8-7.79-4.42-7.65-7.86-7.5-16.21.05-3.08,2.48-8.3-2.69-8.82-7.78-.78-12.26,6.2-15.92-5.28-1.57-4.91-4.9-23.01-7.11-25.65-2.01-2.41-3.81-1.41-6.42-.87-20.2,4.17-43.17,14.81-63.07,17.63-3.9.55-9.08,1.48-10.82-2.59-4.19-9.74-5.26-24.32-9.06-34.63-2.28-6.2-5.79-4.39-11.21-3.58-8.42,1.25-23.93,3.54-31.58,6.04-1.62.53-2.94,1.25-2.92,3.14,4.13,26.88,11.89,53.27,17.92,79.83,2.46,5.72,9.88,4.44,15.17,4.24,28.05-1.07,56.97-5.81,84.93-6.69,13.51-.43,13.51-.26,13.1,13.1-.96,30.96-3.97,63.54-6.1,94.63-.78,11.47-2.71,23.82-3.05,35.17-.23,7.58.17,9.43,8.19,10.06,5.92.46,14.56-.22,20.68-.6,20.96-1.33,45.56-3.6,60.74-19.65ZM275.25,435.64l-52.78-71.91c-1.77-1.79-2.97-3.44-5.76-3.36-1.04.03-11.28,3.38-11.71,3.82-.41.41-.65,1.44-.71,2.03-.37,3.63,3.25,14.95,4.51,19.06.49,1.61,2.08,7.58,2.88,8.34,2.59,2.44,13.23-1.82,16.13,2.38-.33,3.63.58,7.35.73,10.79.12,2.77-1.27,7.21.6,9.11l46.1,19.73ZM379.15,415.16c1.71-1.74,5.61-.34,7.55.36,15.94,5.71,32.36,16.84,48.15,23.45,2.21,1.2,3.93,2.82,4.24,5.47,1.16,9.91-.87,22.03-.04,32.2.12,1.49.27,3.02,1.21,4.25,2.32.12,4.68.77,6.98.91,9.33.58,26.83.99,35.82-.03,2.62-.29,4.68-1.1,5.12-3.98.9-5.83-.14-14.91.01-21.23.22-9.04.45-18.19.61-27.31.08-4.78,2.44-11.55-1.46-15.48-35.88-15.97-71.65-34.85-107.93-49.83-4.69-1.94-13.38-7.03-14.83,1.16-1.32,7.48.63,21.26-7.85,24.91-2.58,1.11-17.87,4.56-18.45,5.38-1.1,3.97,6.42,15.54,4.63,18.42l-53.92,26.79c-5.26,3.61-2.88,7.98-2.81,12.92.38,26.26,2.7,83.57,19.98,103.8,19.91,23.31,61.81,25.64,90.06,22.07,5.46-.69,2.95-5.03,3.32-9.27-4.88-47.18-17.52-96.25-21.16-143.28-.18-2.36-.79-10.13.75-11.69ZM305.04,364.71c-.49.33-1.16,10.16-1.26,11.78-.48,7.7,2.54,15.36-8.83,11.85-13.76-4.26-25.82-14.83-40.51-5.97-.85.51-5.11,3.4-5.23,3.89.42,1.53,1.29,3.09,2.13,4.44,6.04,9.67,19.2,27.1,26.7,35.8,2.87,3.33,3.84,4.44,7.18.61,8.41-9.65,17.56-25.59,25.34-36.55,6.86-9.67,13.74-19.35,21.12-28.64.13-1.59-.26-.6-1.06-.45-2.66.49-5.41,1.04-8.04,1.67-2.19.52-13.15,4.2-13.94,3.68-.62-.41-1.56-3.43-3.59-2.09ZM355.65,361.62c-2.01-.56-9.93,0-12.74,0-4.7,0-7.18,4.71-9.64,7.95-13.34,17.6-26.69,37.76-39.09,56.17-1.43,2.12-3.32,4.43-4.05,6.87l44.66-23.36.29-.95-5.56-13.32c-.6-1.64.54-3.36,2-4.12,4.01-1.68,20.42-5.28,22.65-7.69s3.62-16.16,3-19.42c-.14-.71-.9-1.97-1.5-2.14ZM482.59,490.42c-2.36-1.81-16.75-.2-20.45-.77-.67,4.73-.35,16.58-3.29,20.07-3.44,4.08-13.22,2.42-18.14,5.52-5.22,3.28-4.47,11.45-10.29,14.59-3.48,1.88-9.77,1.54-9.45,7.33,2.65,3.39,6.3,3.3,10.04,1.76,1.89-.78,5.43-4.33,6.91-2.29,1.79,7.13-1.02,23.2,3.88,28.89,1.74,2.02,4.53,3.48,7.26,3,1.94-.35,3.4-2.81,6.07-2.43,2.51.35,2.03,3.98,7.89,3.01,2.71-.45,3.75-3.46,6.1-3.54,2.68-.1,2.38,4.11,7.22,3.56,4.54-.51,4.76-6.61,10.38-6.1,3.39.3,3.48,4.15,5.52,5.44,2.99,1.9,7.26-.63,8.27-3.74,1.74-5.37-1.3-16.57-1.96-22.59-.75-6.9.47-17.96-3.94-23.37-2.98-3.66-9.1-4.16-10.77-9.25-2.04-6.22,1.68-8.86,1.69-12.88,0-1.06-2.19-5.63-2.95-6.21ZM289.82,541.23c.33,4.52-2.07,8.61-2.45,13.02-.65,7.45.61,15.09.66,22.44.06,9.35-.4,18.61-.64,27.94.05,2.1,4.85,1.81,6.37,1.52.32-.06.66-.07.95-.26l1.8-51.02-6.68-13.64ZM298.31,606.15h9.1v-36.71c0-.58-6.14-8-7.11-9.25-.39-.5.01-1.11-1.39-.76l-.61,46.72ZM284.96,606.16v-46.12s-7.88,11.24-7.88,11.24c.04,11.86-.89,23.69-1.23,35.49l9.11-.61ZM309.84,572.17v33.98h7.89c0-9.58-1.03-19.07-.6-28.7l-7.29-5.28ZM273.37,607.31l.66-33.31c-1.51,1.57-6.97,4.39-7.92,5.72-1.89,2.62,1.06,13.81.05,17.63l1.21,11.23,6.01-1.27ZM330.39,583.77l-10.84-4.32.6,27.31,9.71.61.53-23.6ZM263.11,581.89l-8.51,3.45c-.92,5.39-.38,10.82-.6,16.26-1.4,34.89-1.78,70.91,4.44,105.39,1.41,7.8,3.5,19.15,6.41,26.34.77,1.89,3.35.29,4.52-.47,3.21-2.08,3.01-4.6,2.86-8.12-.72-16.14-5.4-35.6-7.23-52.23-1.95-17.68-4.47-41.19-1.74-58.62.29-1.84,1.66-3.64,1.69-4.98.09-3.48-1.52-9.51-1.85-13.38-.35-4.17-.66-9.68,0-13.64ZM345.02,587.35l-12.13-2.43-.62,23.24c2.49,1.38,2.84,2.81,3.07,5.56-.72,37.4.88,74.91,0,112.3-.06,2.58-1.72,13.29-.48,14.69.45.51,1.87.72,2.59.76.51.03,1.01.02,1.51,0,.72-5.36.3-10.74.58-16.11,1.6-30.11,3.17-60.26,4.25-90.41.05-1.44.62-2.76.66-4.2l.58-43.4ZM251.59,586.74c-.47-.35-6.87.75-6.68,2.72-2.13,29.89-2.74,59.89,0,89.8,1.72,18.75,4.79,37.46,7.31,56.1.49.47,7.47-.32,8.76-.59.86-.18.99.47.93-.9-.16-3.53-3.05-11.36-3.97-15.46-9.62-43.06-10-85.72-6.99-129.58.06-.81.34-1.38.63-2.1ZM357.77,588.56l-9.09-.61-7.28,153.51c2.02-.45,5.11-.03,5.79-2.39,6.2-46.74,10.27-93.92,11.22-141.08.07-3.23-.26-6.25-.64-9.43ZM392.97,588.56h-9.1c-.63,32.06-2.35,63.74-7.47,95.38-2.59,15.99-7.48,33.09-9.44,48.81-.08.61-.38,2.01.24,2.06,11.52-1.06,13.08-15.78,15.17-24.88,7.84-34.15,10.77-67.88,11.24-102.83.08-6.2.08-12.39-.63-18.53ZM241.87,589.16l-7.31,1.58c-2.22,27.25-2.43,54.56.03,81.85,1.93,21.46,5.6,42.79,9.11,64.01l5.46-.91c-4.87-27.26-7.84-54.83-9.75-82.48v-26.75s2.45-37.29,2.45-37.29ZM368.09,589.16h-7.29s-1.79,59.19-1.79,59.19c-1.51,20.57-2.59,41.27-4.95,61.79-1.14,9.86-2.84,19.68-4.17,29.5l2.74-.6c5.39-22.79,9.23-46.16,11.82-69.49,2.42-21.8,4.88-48,4.28-69.8-.09-3.41-1.16-7.01-.63-10.59ZM380.22,589.16h-8.49c.05,25.18.14,50.48-2.43,75.54-2.5,24.31-7.83,48.37-12.71,72.25-.27,2.27,5.08-.67,6.23-.46l.91-.91c3.27-17.94,6.52-35.93,9.11-53.99,3.83-26.7,6.64-53.66,7.41-80.58.11-3.94-.13-7.92-.03-11.86ZM231.56,590.99l-8.38,1.31c-.5.32-1.27,10-1.35,11.7-1.43,33.95,2.09,67.88,8.1,101.17.69,3.83,5.7,30.87,7.06,31.77.88.58,3.33.52,3.53-.61-2.78-14.89-5.32-29.94-7.06-45-3.19-27.57-3.56-54.7-3.13-82.47l1.23-17.87ZM219.42,592.8l-10.96,1.56c1.28,28.32,1.6,56.79,6.9,84.71,2.62,13.78,8.43,42.95,14.45,54.72,1.13,2.21,2.14,3.17,4.77,3.41-9.88-42.05-17.01-84.92-16.4-128.36l1.24-16.05Z"/>
  <path d="M222.63,123.93c2.83-2.8,8.52-.18,9.39,3.31.46,1.86.93,9.91.49,11.73-1.01,4.18-7.48,5.79-10.06,2.09-2.2-3.14-2.47-14.5.18-17.14Z"/>
  <path d="M246.58,111.48c-2.88,2.88-5.99-2.47-8.06-4.09-1.17-.91-2.7-1.93-3.98-2.7-2.1-1.25-9.45-3.97-10.27-4.89-1.6-1.79-.31-4.23,1.79-4.89,3.45-1.08,6.21.88,9.08,2.5s15.46,10.04,11.43,14.06Z"/>
  <path d="M265.99,481.3c11.31-1.86,13.39,16.72,4.57,18.52-14.74,3.02-14.8-16.84-4.57-18.52ZM270.83,486.8c-5.28-4.25-10.74,5.22-4.51,7.86,5.54,2.35,7.86-5.16,4.51-7.86Z"/>
  <path d="M295.72,478.87c8.95-1.63,11.35,6.87,10.49,14.13-.53,4.49-7.02,8.22-11.1,6.21-5.6-2.76-7.73-18.82.61-20.34ZM298.14,483.68c-4.64.96-5.74,9.65-.14,9.64,6.13-.01,4.31-10.51.14-9.64Z"/>
</svg>